<svg xmlns="http://www.w3.org/2000/svg" xmlns:xlink="http://www.w3.org/1999/xlink" id="Layer_1" x="0px" y="0px" viewBox="0 0 90 90" style="enable-background:new 0 0 90 90;" xml:space="preserve"> <style type="text/css"> .st0{clip-path:url(#SVGID_2_);fill:#3d577c;} .st1{fill:#3d577c;} </style> <g> <g> <defs> <rect id="SVGID_1_" x="1.8" y="1" width="86.4" height="88"/> </defs> <clipPath id="SVGID_2_"> <use xlink:href="#SVGID_1_" style="overflow:visible;"/> </clipPath> <path class="st0" d="M49.5,33.5l-1.6,3.1c2-23.5,23.3-31.5,23.3-31.5c-4.8,0-14-4.8-26.9-4.1c-8.5,0.5-13.1,4.1-13.1,4.1 c16.9,7.4,8.5,31.2,3.2,42.1h13.7c-0.2-1.2-0.3-2.3-0.4-3.4c3.2,1.8,7.5,3.4,7.5,3.4l4.3-7.6C53,38.3,49.5,33.5,49.5,33.5 L49.5,33.5z"/> </g> <path class="st1" d="M88.2,15.1C87.7,11.9,79,3.5,68,8.4C52.9,15,50,28.8,50,28.8c4.2,10.4,12.2,10,13.4,12.6 c0.7,1.4-1.5,5.8-1.5,5.8h13.5c-1-3.4-1.7-6.5-2-9.2c6,5.8,7.1,9.2,7.1,9.2l6.6-9.5c-14-7.2-5.9-19.1-5.9-19.1 c-3.9,2.2-6.2,5.5-7.5,8.1C76.8,14.9,88.2,15.1,88.2,15.1L88.2,15.1z"/> <path class="st1" d="M35.8,26.5l-3.6,2.1c0,0,2.9-3.4,2.9-6.2C35.1,22.5,36,24.7,35.8,26.5L35.8,26.5z M25.2,4c0,0,0,4,2.1,7.5 l-2.1-2.9c0,0-4.9,5.5-4.9,12.4c0,0-2.1,0.8-3.7,3.1c0,0,3.2,1.4,6.4,1l-2.1,4.6c0,0,3.1,1.4,7.5,0.6c0,0-7.2,3.9-13.6-1 c0,0,4.6,11.9,22.1,7.7C46.3,23.2,35.4,5.7,25.2,4L25.2,4z"/> <path class="st1" d="M62.2,68.5l1.6-4.6l1.6,4.6H62.2L62.2,68.5z M68.2,77h4.5L66,57.2h-4.5L54.8,77h4.5l1.6-4.7h5.7L68.2,77 L68.2,77z"/> <polygon class="st1" points="24.5,73.1 24.5,69.1 31.9,69.1 31.9,65.1 24.5,65.1 24.5,61.1 35,61.1 35,57.2 20.2,57.2 20.2,77 35.2,77 35.2,73.1 24.5,73.1 "/> <path class="st1" d="M48.7,69.9c2.5-0.9,4.2-2.9,4.2-6.1v-0.1c0-4.1-2.8-6.5-7.4-6.5h-9V77h4.3V61.1h4.3c2.1,0,3.4,1,3.4,2.8V64 c0,1.7-1.2,2.8-3.3,2.8h-3.6L48.4,77h5.1L48.7,69.9L48.7,69.9z"/> <polygon class="st1" points="18.8,57.2 13.4,57.2 6.1,64.3 6.1,57.2 1.8,57.2 1.8,76.9 6.1,76.9 6.1,69.8 13.4,77 18.8,77 8.7,67.1 18.8,57.2 "/> <path class="st1" d="M87.7,63.7c-0.4-5.7-4.2-6.4-7.5-6.5c-2.5,0-4.6,0.6-5.8,1.8c-1,1-1.5,2.4-1.4,4.2c0.2,3.8,3.1,4.6,7.3,5.5 l0.7,0.2c2.9,0.6,3.1,0.9,3.1,2.1c0,1.2-1.3,1.9-3.2,1.9l-0.2,0c-2,0-3.6-0.5-3.6-3.2l-4.2,0c0,4.9,2.4,7.1,7.9,7.1 c5,0,7.6-2.1,7.6-6.2c0-4-3-4.9-5.8-5.6c-0.3-0.1-0.6-0.1-0.9-0.2l-0.4-0.1c-3.4-0.7-3.9-1-3.8-2.7c0-0.5,0.3-1.4,2.9-1.4l0.2,0 c1.4,0,3,0.4,3.1,2.9H87.7L87.7,63.7z"/>  </g> </svg>